<svg xmlns="http://www.w3.org/2000/svg" width="168" height="44" viewBox="0 0 168 44" fill="none"><path fill-rule="evenodd" clip-rule="evenodd" d="M33 13.8C33.9 12.3 34.4 10.8 34.4 9.2 34.4 6.5 33.5 4.3 31.6 2.6 29.7 0.9 27.3 0 24.4 0 19.7 0 16.1 1.5 13.5 4.6 10.9 7.6 9.6 11.6 9.6 16.6 9.6 16.8 9.7 17 9.9 17.2 10.1 17.4 10.3 17.5 10.6 17.5 10.8 17.5 11 17.4 11.2 17.3 11.4 17.1 11.5 16.9 11.5 16.6 11.7 11.9 12.8 8.3 14.9 5.7 17.1 3.1 20.2 1.8 24.4 1.8 26.7 1.8 28.7 2.5 30.2 3.9 31.8 5.2 32.6 7 32.5 9.1 32.5 10.5 32.1 11.8 31.2 13.2 30.4 14.5 29.3 15.5 27.9 16.2 26.4 15.2 24.6 14.7 22.5 14.7 20.9 14.7 20.1 15.4 20.1 16.8 20.1 17.7 20.5 18.3 21.1 18.6 21.7 18.9 22.6 19.1 23.8 19.1 25.1 19.1 26.5 18.8 27.7 18.3 28.6 19.1 29.3 20 29.9 21.3 30.4 22.5 30.7 23.7 30.7 25.1 30.7 27.4 29.9 29.4 28.5 31.1 27.1 32.6 25.2 33.4 22.7 33.4 21.1 33.4 19.7 33.1 18.6 32.5 17.4 31.8 16.9 30.8 16.9 29.6 16.9 28.8 17.1 28.1 17.7 27.5 18.2 26.9 18.9 26.6 19.6 26.6 20.2 26.6 20.6 26.8 21.1 27.2 21.6 27.6 22 28.2 22.2 28.9 22.3 29.3 22.6 29.5 23.1 29.5 23.5 29.5 23.7 29.4 23.9 29.1 24.1 28.8 24.1 28.6 24 28.3 23.1 25.9 21.6 24.8 19.6 24.8 18.4 24.8 17.3 25.2 16.4 26.2 15.5 27.1 15 28.2 15 29.6 15 31.3 15.7 32.7 17.1 33.7 18.6 34.8 20.4 35.3 22.7 35.3 25.6 35.3 28 34.3 29.8 32.4 31.7 30.4 32.6 28 32.6 25.1 32.6 22.5 31.8 20.2 30.3 18.4L29.5 17.4C31 16.5 32.1 15.3 33 13.8ZM19.2 15.6C20.6 11.3 21.6 8.4 22.4 6.9 22.7 6.4 23.1 5.8 23.6 5.4 24.1 4.9 24.6 4.6 25.2 4.5 25.7 4.4 25.9 4.1 25.9 3.5 25.8 3 25.5 2.7 25 2.7 24.3 2.7 23.5 3 22.7 3.7 21.9 4.4 21.2 5.2 20.7 6 19.8 7.8 18.7 10.8 17.4 15.1 17.4 15.3 17.3 15.5 17.2 15.7 16.7 17.4 16.3 18.8 15.9 20 15.5 21.1 15 22.4 14.3 23.9 13.7 25.3 13 26.5 12.3 27.4 11.7 28.3 10.8 29.1 9.8 29.7 8.8 30.4 7.7 30.7 6.5 30.7 5.2 30.7 4.1 30.3 3.2 29.6 2.3 28.9 1.9 27.9 1.9 26.6 1.9 25.2 2.3 24 3.3 22.9 4.2 21.8 5.3 21.3 6.5 21.3 6.8 21.3 7.1 21.3 7.2 21.4 7.5 21.4 7.8 21.4 8 21.2 8.3 21 8.4 20.8 8.4 20.4 8.4 20.1 8.2 19.8 7.7 19.6 7.4 19.4 7 19.4 6.4 19.4 4.8 19.4 3.3 20.1 2 21.6 0.7 23 0 24.7 0 26.6 0 28.4 0.6 29.8 1.8 30.9 3.1 32 4.7 32.5 6.5 32.5 7.6 32.5 8.5 32.4 9.4 32 10.4 31.6 11.2 31.2 11.8 30.7 12.5 30.2 13.2 29.5 13.8 28.5 14.5 27.5 15.1 26.6 15.5 25.9 15.9 25.1 16.4 24 16.9 22.6 17.4 21.2 17.8 20 18.1 19.2 18.4 18.4 18.7 17.2 19.2 15.6ZM25.4 17C24.8 17.2 24.3 17.2 24 17.2 22.7 17.2 22 17.1 22 16.9 22 16.6 22.2 16.5 22.6 16.5 22.9 16.5 23.3 16.6 24 16.7 24.7 16.9 25.2 17 25.4 17ZM60.3 22.8L60.2 23C60.2 23.1 60.2 23.2 60.2 23.3 58.7 26.6 57.3 29 56.1 30.4 54.8 31.8 53.5 32.5 52 32.5H51.9C50.9 32.5 50.1 32.2 49.5 31.5 49 30.9 48.7 30 48.7 28.8 48.7 28 48.9 26.9 49.4 25.7 49.5 25 49.9 24.3 50.4 23.5 49.9 24 49.1 24.4 48.1 24.7 46.3 29.9 43.8 32.5 40.7 32.5 38.2 32.5 36.7 31.6 36 29.8 35.4 28 35.6 25.6 36.7 22.6 36.9 22.2 37.2 22 37.6 22 37.9 22 38.1 22.1 38.3 22.3 38.5 22.5 38.6 22.7 38.6 22.9 38.6 23 38.5 23.2 38.5 23.3 36.8 28.2 37.5 30.7 40.7 30.7 42.8 30.7 44.5 28.8 46 25.1 45.6 25.2 45.2 25.2 44.6 25.2 43 25.2 41.6 24.6 40.6 23.5 39.5 22.3 39.2 20.8 39.6 18.9 40 16.8 40.8 15.1 42 13.8 43.2 12.4 44.5 11.7 46 11.7 47.5 11.7 48.6 12.4 49.3 13.7 50 15.1 50.1 16.8 49.6 18.9 49.4 20.2 49.1 21.3 48.8 22.4 50.2 21.6 51.2 20.6 51.8 19.2 51.9 18.6 52.2 18.4 52.8 18.4 53 18.4 53.3 18.5 53.4 18.6 53.6 18.8 53.7 19 53.7 19.3 53.7 19.4 53.7 19.6 53.7 19.6 52.8 21.4 52 23.6 51.2 26.2 50.8 27.3 50.6 28.1 50.6 28.8 50.6 30.1 51.1 30.7 52 30.7 53 30.7 54.1 30.1 55 28.8 55.9 27.7 56.9 25.8 58.1 23.1 58.7 21.9 59.1 21 59.3 20.4 59.7 19.6 60.2 18.5 60.9 17.2 61.6 15.9 62.3 14.9 62.8 14.3 63.3 13.6 64 13 64.8 12.5 65.6 12 66.4 11.7 67.2 11.7 68.8 11.7 70 12.2 70.9 13.3 71.7 14.3 72.2 15.7 72.2 17.4 72.2 18.9 71.9 20.4 71.3 21.9 70.7 23.4 69.8 24.6 68.7 25.6 69.5 27 69.7 28.9 69.2 31.5 72.1 29.7 74.4 26.9 76.1 23 76.3 22.4 76.5 21.8 76.7 21.1 77.6 18.6 78.8 16.5 80.4 14.6 82 12.7 83.6 11.7 85.3 11.7 87.2 11.7 88.6 12.5 89.4 14.1 89.5 13.8 89.7 13.1 90.1 12.1 90.3 11.7 90.6 11.5 91 11.5 91.4 11.5 91.6 11.6 91.8 11.9 92 12.2 92 12.5 91.9 12.7L89.6 18.6C89.5 18.9 89.3 19.4 89.1 20.1L88.6 21.5C88.5 21.8 88.3 22.3 88.1 22.8 87.9 23.4 87.8 23.8 87.7 24.1 87.6 24.4 87.5 24.8 87.3 25.2 87.2 25.7 87 26.1 87 26.4 86.9 26.6 86.8 27 86.7 27.3 86.7 27.6 86.6 27.9 86.6 28.2 86.6 28.4 86.6 28.6 86.6 28.8 86.6 30.1 87 30.7 87.9 30.7 88.4 30.7 89 30.5 89.5 30.1 90 29.7 90.5 29.3 90.9 28.8 91.3 28.4 91.7 27.7 92.2 26.9 92.7 26 93.1 25.3 93.3 24.8 93.5 24.3 93.9 23.6 94.3 22.7L94.3 22.6H94.1C93.8 22.6 93.6 22.5 93.4 22.3 93.2 22.2 93.1 21.9 93.1 21.7 93.2 21.1 93.5 20.7 94.1 20.7H95C96.6 16.2 97.7 13.4 98.1 12.3 98.2 11.9 98.5 11.7 99 11.7 99.3 11.7 99.5 11.8 99.7 12.1 99.9 12.3 100 12.6 99.9 12.9L97 20.7H103.7 103.8 104.2C105.4 17.3 106.5 14.5 107.3 12.3 107.4 11.9 107.7 11.7 108.2 11.7 108.5 11.7 108.8 11.8 108.9 12.1 109.2 12.3 109.2 12.6 109.1 12.9 107.9 16.1 107 18.7 106.3 20.7H106.5C107.1 20.7 107.5 21.1 107.5 21.7 107.5 21.9 107.4 22.2 107.2 22.3 107.1 22.5 106.8 22.6 106.6 22.6H105.6C104.5 25.6 103.9 27.7 103.9 28.8 103.9 30.1 104.4 30.7 105.3 30.7 106.3 30.7 107.3 30.1 108.2 28.9 109.1 27.7 110.3 25.5 111.7 22.6 111.8 22.5 111.8 22.4 111.9 22.3L115.5 12.5C115.6 12 115.9 11.7 116.4 11.7 116.7 11.7 116.9 11.8 117.1 12 117.3 12.2 117.3 12.4 117.3 12.6 117.3 12.8 117.3 12.9 117.3 12.9L115.2 18.7C117 17.1 118.8 16.3 120.5 16.3 122 16.3 123.2 16.8 124 17.7 124.8 18.6 125.2 19.8 125.2 21.2 125.2 23.3 124.4 25.4 123 27.5 123.4 27.8 123.9 27.9 124.5 27.9 125.5 27.9 126.5 27.4 127.3 26.6 128.1 25.7 128.9 24.3 129.7 22.6 129.7 22.5 129.7 22.5 129.7 22.4 129.5 21.6 129.4 20.6 129.4 19.7 129.3 16.2 130.5 13 132.6 10.5 132.6 10.4 132.7 10.4 132.7 10.3 134.2 8.5 136.2 7.1 138.4 6.2 138.4 6.2 138.4 6.2 138.4 6.2 138.4 6.2 138.4 6.2 138.4 6.2 138.5 6.1 138.5 6.1 138.5 6.1 140.1 5.5 141.9 5.1 143.7 5.1 146.4 5 148.9 5.7 151.1 6.9 151.2 6.9 151.2 7 151.3 7 153.5 8.3 155.3 10.1 156.6 12.3 156.6 12.3 156.7 12.4 156.7 12.5 157.8 14.4 158.4 16.6 158.4 19 158.5 24.5 155.4 29.4 150.8 31.9L151.4 31.9C154.4 31.8 157.3 30.4 159.2 28.1 161.1 25.8 161.9 22.7 161.3 19.8L161.3 19.6C160.6 15.7 162.7 11.8 166.5 10.3L166.5 10.3C167 10.1 167.4 10.3 167.6 10.8 167.8 11.2 167.6 11.6 167.1 11.8L167.1 11.8C164 13 162.3 16.2 162.9 19.3L162.9 19.5C163.6 22.9 162.7 26.4 160.4 29.1 158.2 31.8 154.9 33.4 151.4 33.5L145.5 33.6C145.4 33.6 145.3 33.6 145.2 33.6 144.9 33.6 144.5 33.6 144.1 33.6 142.4 33.7 140.7 33.4 139.1 32.9 139.1 32.9 139.1 32.8 139 32.8 135.2 31.5 132.1 28.7 130.6 25.1 128.9 28.2 126.9 29.7 124.6 29.7 123.5 29.7 122.6 29.5 121.8 29 119.7 31.4 117.4 32.5 115 32.5 113.7 32.5 112.6 32.1 111.7 31.2 111.1 30.5 110.7 29.8 110.5 28.9 110.1 29.5 109.7 30 109.3 30.5 108.1 31.9 106.8 32.5 105.3 32.5 104.2 32.5 103.4 32.2 102.9 31.5 102.3 30.9 102.1 30 102.1 28.8 102.1 27.4 102.6 25.4 103.6 22.6 102.8 22.6 101.6 22.6 99.9 22.6H96.3C96.3 22.8 96.2 22.9 96.1 23.2 96.1 23.2 96.1 23.3 96.1 23.3L96 23.4 96 23.5C95.5 24.9 94.5 27.7 93 31.9 92.8 32.5 92.4 32.7 91.8 32.5 91.2 32.3 91 31.9 91.2 31.3L91.2 31.1C90.9 31.4 90.5 31.6 90.1 31.9 89.4 32.3 88.7 32.5 87.9 32.5 86.8 32.5 86 32.2 85.5 31.5 84.9 30.9 84.7 30 84.7 28.8 82.9 31.3 81 32.5 79.1 32.5 77.9 32.5 77 32.1 76.3 31.2 75.8 30.4 75.4 29.3 75.4 28 73.5 30.8 71.1 32.8 68.4 34 65.9 40.7 62.6 44 58.5 44 57 44 55.9 43.6 55.1 42.9 54.2 42.2 53.8 41.1 53.8 39.8 53.8 38.3 54.3 37.1 55.4 36.2 56.5 35.2 58.3 34.6 60.7 34.2 63.5 33.7 65.5 33.2 66.9 32.6 67.7 29.8 67.7 27.8 67.1 26.6 65.7 27.2 64.4 27.5 63.3 27.3 62.1 27 61.5 26.3 61.5 25.2 61.5 23.8 62.2 23.1 63.6 22.9 64.9 22.7 66.2 23.1 67.4 24.1 69.3 22.8 70.3 20.5 70.3 17.4 70.3 14.8 69.3 13.6 67.2 13.6 66.9 13.6 66.6 13.6 66.3 13.8 65.9 13.9 65.6 14.1 65.3 14.4 64.9 14.7 64.6 15 64.4 15.3 64.1 15.6 63.8 16 63.5 16.6 63.2 17.1 62.9 17.6 62.7 17.9 62.5 18.3 62.2 18.8 61.8 19.6 61.5 20.3 61.2 20.8 61.1 21.1 60.9 21.5 60.7 22 60.3 22.8ZM77.9 23.5C77.5 25 77.3 26.3 77.3 27.5 77.3 29.6 77.9 30.7 79 30.7 79.6 30.7 80.2 30.6 80.7 30.3 81.3 29.9 81.8 29.5 82.3 28.8 82.9 28.1 83.3 27.5 83.7 26.9 84.1 26.3 84.6 25.4 85 24.4 85.5 23.4 85.9 22.6 86.1 22L87.1 19.6 88.2 16.8C88.1 15.8 87.8 15 87.3 14.4 86.8 13.9 86.1 13.6 85.3 13.6 84 13.6 82.7 14.5 81.4 16.2 80.2 17.9 79.2 19.9 78.4 22 78.3 22.3 78.2 22.5 78.2 22.8 78.2 22.8 78.2 22.8 78.2 22.9 78.2 22.9 78.1 23 78.1 23.2 78 23.3 78 23.4 77.9 23.5ZM46.7 23.1C46.1 23.3 45.4 23.3 44.6 23.3 43.5 23.3 42.6 23 42 22.3 41.4 21.6 41.2 20.4 41.4 18.9 41.7 17.4 42.3 16.2 43.2 15.2 44.1 14.1 45 13.6 46 13.6 46.9 13.6 47.5 14.1 47.8 15.1 48.1 16 48.1 17.3 47.8 18.9 47.4 20.6 47 21.9 46.7 23.1ZM65.8 25.2C65.4 24.9 65 24.8 64.6 24.7 64.2 24.5 64 24.5 63.8 24.7 63.5 24.8 63.4 24.9 63.4 25.2 63.5 25.4 63.7 25.5 64.2 25.5 64.8 25.5 65.3 25.4 65.8 25.2ZM65.9 35C64.9 35.3 63.3 35.6 61 36 57.4 36.6 55.6 37.8 55.6 39.7 55.6 40.4 55.9 40.9 56.5 41.4 57 41.9 57.6 42.2 58.4 42.2 61.2 42.2 63.7 39.8 65.9 35ZM120.5 27.7C118.7 29.7 116.9 30.7 115 30.7 114.3 30.7 113.6 30.4 113 29.9 112.5 29.3 112.2 28.6 112.2 27.7 112.2 27.2 112.4 26.5 112.6 25.8L112.9 24.9C113.6 23.2 114.7 21.6 116.2 20.3 117.7 18.9 119.2 18.2 120.5 18.2 122.4 18.2 123.3 19.2 123.3 21.2 123.3 22.7 122.8 24.3 121.8 25.9 121.7 25.5 121.6 25.1 121.6 24.7 121.6 24.3 121.7 23.8 121.9 23.2 122 22.9 121.9 22.6 121.7 22.4 121.6 22.1 121.3 22 121 22 120.5 22 120.2 22.2 120.1 22.7 119.9 23.4 119.8 24.1 119.8 24.7 119.8 25.8 120 26.8 120.5 27.7ZM150.1 24.6C153 21.3 154.7 17.2 155.1 13 154.3 11.5 153.2 10.3 151.9 9.3 151.9 9.8 151.9 10.3 152 10.8 152.1 20.2 144.7 28.1 135.2 28.7 136.4 29.8 137.8 30.7 139.4 31.3 143.6 30.2 147.3 27.8 150.1 24.6ZM139 26.4C136 24.8 133.3 22.8 131 20.3 131.2 22.9 132.2 25.3 133.7 27.2 133.7 27.2 133.7 27.2 133.7 27.2 133.7 27.2 133.7 27.2 133.7 27.2 133.9 27.2 134.1 27.2 134.3 27.2 135.9 27.2 137.5 26.9 139 26.4ZM134 13.5C133.7 13.1 133.5 12.7 133.2 12.4 132.1 14 131.3 15.9 131.1 17.9 133.8 21.2 137.2 23.9 141 25.6 142.9 24.7 144.6 23.5 146 21.9 141.3 20.6 137 17.7 134 13.5ZM150.3 10.8C150.3 9.9 150.2 9 150.1 8.2 148.2 7.2 146 6.6 143.7 6.7 142.4 6.7 141.1 6.9 139.9 7.3 140.2 7.8 140.5 8.3 140.8 8.7 143 11.8 146.6 13.7 150.1 13.8 150.3 12.8 150.4 11.8 150.3 10.8ZM139.5 9.6C139.1 9.1 138.7 8.5 138.4 7.9 136.8 8.7 135.4 9.7 134.3 11 134.6 11.5 134.9 12.1 135.3 12.6 138.3 16.7 142.5 19.5 147.2 20.6 148.3 19 149.2 17.3 149.7 15.4 145.8 15.2 142 13.1 139.5 9.6ZM151.4 25.6C148.9 28.4 145.8 30.6 142.4 32 143 32 143.5 32 144.1 32 151.2 31.9 156.9 26 156.8 19.1 156.8 17.9 156.6 16.8 156.3 15.7 155.5 19.3 153.8 22.7 151.4 25.6Z" fill="black"/></svg>