<svg width="39" height="42" viewBox="0 0 39 42" fill="none" xmlns="http://www.w3.org/2000/svg">
<path d="M38 18.5731C38 14.6898 32.2386 12.4545 25.5031 11.6387C25.5257 5.9116 24.5592 3.74968 23.5851 2.55859C22.7243 1.50618 21.5841 0.984054 20.2022 1.00037C16.9478 1.04932 14.2596 4.94078 12.7645 11.7366C6.34612 12.6176 1 14.8367 1 18.5731C1 18.8995 1.04531 19.2176 1.12082 19.5195L5.0398 36.3743C5.15306 36.8801 5.47776 37.2962 5.91571 37.5001C11.4506 40.1189 16.3135 41 20.3457 41C28.3196 41 33.0541 37.5654 33.341 37.3451C33.6506 37.1167 33.8696 36.7659 33.9602 36.3743L37.8641 19.5439C37.8943 19.4542 38 18.8097 38 18.5731ZM34.9192 18.5731C34.9192 19.5032 31.3778 21.5182 24.7102 22.2525C25.0576 19.4379 25.2765 17.0312 25.3898 14.9754C31.6118 15.7667 34.9192 17.6757 34.9192 18.5731ZM20.24 4.32891C21.9314 4.32891 22.4373 7.29034 22.4298 11.3694C21.4557 11.3123 20.4741 11.2879 19.5 11.2879C18.3447 11.2879 17.1818 11.3286 16.0265 11.4021C17.2498 6.58873 19.0016 4.32891 20.24 4.32891ZM19.5 14.6164C20.4892 14.6164 21.4255 14.6409 22.3241 14.698C22.2033 16.8191 21.9616 19.3563 21.5841 22.3993C21.5765 22.4319 21.5765 22.4564 21.5765 22.4891C20.912 22.5135 20.2173 22.5298 19.5076 22.5298C9.4949 22.5298 4.08837 19.7234 4.08837 18.5731C4.08082 17.4228 9.48735 14.6164 19.5 14.6164ZM31.121 34.9058C29.0822 36.1459 20.5194 40.4616 7.84122 34.7671L5.13796 23.3865C8.76245 25.0589 14.2445 25.8584 19.5 25.8584C24.7178 25.8584 30.1696 25.0752 33.7865 23.4191L31.121 34.9058Z" fill="black" stroke="white"/>
</svg>
