<svg width="20" height="20" viewBox="0 0 20 20" fill="none" xmlns="http://www.w3.org/2000/svg">
<path fill-rule="evenodd" clip-rule="evenodd" d="M3.75 3.92045C3.75 4.26563 4.02982 4.54545 4.375 4.54545C4.72018 4.54545 5 4.26563 5 3.92045V3.06824H14.75V3.92045C14.75 4.26563 15.0298 4.54545 15.375 4.54545C15.7202 4.54545 16 4.26563 16 3.92045V3.06824H17C17.9665 3.06824 18.75 3.85174 18.75 4.81824V6.93176L1.25 6.93176V4.81824C1.25 3.85174 2.0335 3.06824 3 3.06824H3.75V3.92045ZM1.25 8.18176V17.0001C1.25 17.9666 2.0335 18.7501 3 18.7501H17C17.9665 18.7501 18.75 17.9666 18.75 17.0001V8.18176L1.25 8.18176ZM20 8.18176V17.0001C20 18.6569 18.6569 20.0001 17 20.0001H3C1.34315 20.0001 0 18.6569 0 17.0001V4.81824C0 3.16138 1.34315 1.81824 3 1.81824H3.75V0.625C3.75 0.279822 4.02982 0 4.375 0C4.72018 0 5 0.279822 5 0.625V1.81824H14.75V0.625C14.75 0.279822 15.0298 0 15.375 0C15.7202 0 16 0.279822 16 0.625V1.81824H17C18.6569 1.81824 20 3.16138 20 4.81824V6.93176V8.18176Z" fill="black"/>
</svg>
