<svg width="20" height="20" viewBox="0 0 20 20" fill="none" xmlns="http://www.w3.org/2000/svg">
<path fill-rule="evenodd" clip-rule="evenodd" d="M4.4443 18.3147C6.08879 19.4135 8.02219 20 10 20C12.6522 20 15.1957 18.9464 17.0711 17.0711C18.9464 15.1957 20 12.6522 20 10C20 8.02219 19.4135 6.08879 18.3147 4.4443C17.2159 2.79981 15.6541 1.51809 13.8268 0.761209C11.9996 0.00433283 9.98891 -0.1937 8.0491 0.192152C6.10929 0.578004 4.32746 1.53041 2.92894 2.92894C1.53041 4.32746 0.578004 6.10929 0.192152 8.0491C-0.1937 9.98891 0.00433283 11.9996 0.761209 13.8268C1.51809 15.6541 2.79981 17.2159 4.4443 18.3147ZM5.23797 2.87312C6.64754 1.93128 8.30473 1.42858 10 1.42858C12.2733 1.42858 14.4535 2.33163 16.0609 3.93909C17.6684 5.54654 18.5714 7.72672 18.5714 10C18.5714 11.6953 18.0687 13.3525 17.1269 14.762C16.185 16.1716 14.8464 17.2702 13.2801 17.919C11.7139 18.5677 9.99049 18.7375 8.3278 18.4067C6.66511 18.076 5.13782 17.2597 3.93909 16.0609C2.74035 14.8622 1.924 13.3349 1.59327 11.6722C1.26254 10.0095 1.43229 8.28608 2.08104 6.71986C2.72979 5.15364 3.82841 3.81496 5.23797 2.87312ZM9.28571 9.46443C9.28571 9.99486 9.49642 10.5036 9.8715 10.8786L12.7747 13.7819C13.053 14.0601 13.5041 14.0601 13.7824 13.7819C14.0604 13.5038 14.0607 13.0531 13.7829 12.7747L11.2987 10.2855C10.9244 9.91058 10.7143 9.40248 10.7143 8.87274V4.28571C10.7143 3.89122 10.3945 3.57143 10 3.57143C9.60551 3.57143 9.28571 3.89122 9.28571 4.28571V9.46443Z" fill="black"/>
</svg>
